<svg aria-hidden="true" style="width:0;height:0;position:absolute;overflow:hidden" xmlns="http://www.w3.org/2000/svg"><defs><symbol id="icon-arrow" viewBox="0 0 51 32"><path d="M25.602 30.593c-.918 0-1.835-.35-2.535-1.05L1.052 7.528a3.586 3.586 0 0 1 5.071-5.071l19.479 19.48L45.081 2.458a3.585 3.585 0 1 1 5.07 5.071L28.137 29.544a3.576 3.576 0 0 1-2.535 1.049z"/></symbol><symbol id="icon-search" viewBox="0 0 32 32"><path fill="#fff" style="fill:var(--color1,#fff)" d="m31.609 29.724-9.1-9.1a12.603 12.603 0 0 0 2.824-7.957C25.333 5.683 19.65 0 12.667 0S.001 5.683.001 12.666c0 6.984 5.683 12.667 12.667 12.667 3.013 0 5.78-1.061 7.957-2.824l9.1 9.1a1.33 1.33 0 0 0 1.886 0 1.332 1.332 0 0 0 0-1.885zm-18.942-7.057c-5.515 0-10-4.485-10-10s4.485-10 10-10 10 4.485 10 10-4.485 10-10 10z"/></symbol></defs></svg>