<svg aria-hidden="true" style="position: absolute; width: 0; height: 0; overflow: hidden;" version="1.1" xmlns="http://www.w3.org/2000/svg" xmlns:xlink="http://www.w3.org/1999/xlink">
<defs>
<symbol id="icon-arrow" viewBox="0 0 51 32">
<path d="M25.602 30.593c-0.918 0-1.835-0.35-2.535-1.050l-22.015-22.015c-1.4-1.4-1.4-3.671 0-5.071s3.67-1.4 5.071 0l19.479 19.48 19.479-19.479c1.401-1.4 3.67-1.4 5.070 0 1.401 1.4 1.401 3.67 0 5.071l-22.014 22.015c-0.7 0.699-1.617 1.049-2.535 1.049z"></path>
</symbol>
<symbol id="icon-search" viewBox="0 0 32 32">
<path fill="#fff" style="fill: var(--color1, #fff)" d="M31.609 29.724l-9.1-9.1c1.763-2.177 2.824-4.944 2.824-7.957 0-6.984-5.683-12.667-12.666-12.667s-12.666 5.683-12.666 12.666c0 6.984 5.683 12.667 12.667 12.667 3.013 0 5.78-1.061 7.957-2.824l9.1 9.1c0.26 0.26 0.601 0.391 0.943 0.391s0.683-0.131 0.943-0.391c0.521-0.521 0.521-1.364 0-1.885zM12.667 22.667c-5.515 0-10-4.485-10-10s4.485-10 10-10c5.515 0 10 4.485 10 10s-4.485 10-10 10z"></path>
</symbol>
</defs>
</svg>
